<mxfile modified="2023-05-25T09:24:58.393Z" host="app.diagrams.net" agent="Mozilla/5.0 (Macintosh; Intel Mac OS X 10_15_7) AppleWebKit/537.36 (KHTML, like Gecko) Chrome/109.0.0.0 Safari/537.36" etag="CyRAP3gQeXC-qNTCqY0D" version="21.3.3" type="device">
  <diagram id="Ht1M8jgEwFfnCIfOTk4-" name="Page-1">
    <mxGraphModel dx="2998" dy="1365" grid="1" gridSize="10" guides="1" tooltips="1" connect="1" arrows="1" fold="1" page="1" pageScale="1" pageWidth="1169" pageHeight="827" math="0" shadow="0">
      <root>
        <mxCell id="0" />
        <mxCell id="1" parent="0" />
        <mxCell id="UEzPUAAOIrF-is8g5C7q-74" value="AWS Cloud" style="points=[[0,0],[0.25,0],[0.5,0],[0.75,0],[1,0],[1,0.25],[1,0.5],[1,0.75],[1,1],[0.75,1],[0.5,1],[0.25,1],[0,1],[0,0.75],[0,0.5],[0,0.25]];outlineConnect=0;gradientColor=none;html=1;whiteSpace=wrap;fontSize=12;fontStyle=0;shape=mxgraph.aws4.group;grIcon=mxgraph.aws4.group_aws_cloud_alt;strokeColor=#232F3E;fillColor=none;verticalAlign=top;align=left;spacingLeft=30;fontColor=#232F3E;dashed=0;labelBackgroundColor=#ffffff;container=1;pointerEvents=0;collapsible=0;recursiveResize=0;" parent="1" vertex="1">
          <mxGeometry x="50" y="80" width="1080" height="1060" as="geometry" />
        </mxCell>
        <mxCell id="vUUI1PN4nQBjMnBYSGBK-1" value="VPC" style="points=[[0,0],[0.25,0],[0.5,0],[0.75,0],[1,0],[1,0.25],[1,0.5],[1,0.75],[1,1],[0.75,1],[0.5,1],[0.25,1],[0,1],[0,0.75],[0,0.5],[0,0.25]];outlineConnect=0;gradientColor=none;html=1;whiteSpace=wrap;fontSize=12;fontStyle=0;container=1;pointerEvents=0;collapsible=0;recursiveResize=0;shape=mxgraph.aws4.group;grIcon=mxgraph.aws4.group_vpc;strokeColor=#248814;fillColor=none;verticalAlign=top;align=left;spacingLeft=30;fontColor=#AAB7B8;dashed=0;horizontal=1;" parent="UEzPUAAOIrF-is8g5C7q-74" vertex="1">
          <mxGeometry x="20" y="30" width="1040" height="730" as="geometry" />
        </mxCell>
        <mxCell id="EJ77hEFKKq3g6bZW5yER-6" value="Private subnet" style="points=[[0,0],[0.25,0],[0.5,0],[0.75,0],[1,0],[1,0.25],[1,0.5],[1,0.75],[1,1],[0.75,1],[0.5,1],[0.25,1],[0,1],[0,0.75],[0,0.5],[0,0.25]];outlineConnect=0;gradientColor=none;html=1;whiteSpace=wrap;fontSize=12;fontStyle=0;container=1;pointerEvents=0;collapsible=0;recursiveResize=0;shape=mxgraph.aws4.group;grIcon=mxgraph.aws4.group_security_group;grStroke=0;strokeColor=#147EBA;fillColor=#E6F2F8;verticalAlign=top;align=left;spacingLeft=30;fontColor=#147EBA;dashed=0;" parent="vUUI1PN4nQBjMnBYSGBK-1" vertex="1">
          <mxGeometry x="50" y="60" width="380" height="190" as="geometry" />
        </mxCell>
        <mxCell id="vUUI1PN4nQBjMnBYSGBK-41" value="RDS Subnet" style="sketch=0;outlineConnect=0;gradientColor=none;html=1;whiteSpace=wrap;fontSize=12;fontStyle=0;shape=mxgraph.aws4.group;grIcon=mxgraph.aws4.group_subnet;strokeColor=#879196;fillColor=none;verticalAlign=top;align=left;spacingLeft=30;fontColor=#879196;dashed=0;" parent="vUUI1PN4nQBjMnBYSGBK-1" vertex="1">
          <mxGeometry x="610" y="490" width="410" height="220" as="geometry" />
        </mxCell>
        <mxCell id="vUUI1PN4nQBjMnBYSGBK-2" value="Private subnet(s)" style="points=[[0,0],[0.25,0],[0.5,0],[0.75,0],[1,0],[1,0.25],[1,0.5],[1,0.75],[1,1],[0.75,1],[0.5,1],[0.25,1],[0,1],[0,0.75],[0,0.5],[0,0.25]];outlineConnect=0;gradientColor=none;html=1;whiteSpace=wrap;fontSize=12;fontStyle=0;container=1;pointerEvents=0;collapsible=0;recursiveResize=0;shape=mxgraph.aws4.group;grIcon=mxgraph.aws4.group_security_group;grStroke=0;strokeColor=#147EBA;fillColor=#E6F2F8;verticalAlign=top;align=left;spacingLeft=30;fontColor=#147EBA;dashed=0;" parent="vUUI1PN4nQBjMnBYSGBK-1" vertex="1">
          <mxGeometry x="610" y="50" width="410" height="410" as="geometry" />
        </mxCell>
        <mxCell id="vUUI1PN4nQBjMnBYSGBK-8" value="SQS Handler Lambda Function" style="outlineConnect=0;dashed=0;verticalLabelPosition=bottom;verticalAlign=top;align=center;html=1;shape=mxgraph.aws3.lambda_function;fillColor=#F58534;gradientColor=none;" parent="vUUI1PN4nQBjMnBYSGBK-2" vertex="1">
          <mxGeometry x="229" y="280" width="69" height="72" as="geometry" />
        </mxCell>
        <mxCell id="vUUI1PN4nQBjMnBYSGBK-5" value="Application/API Lambda Function" style="outlineConnect=0;dashed=0;verticalLabelPosition=middle;verticalAlign=middle;align=left;html=1;shape=mxgraph.aws3.lambda_function;fillColor=#F58534;gradientColor=none;textDirection=ltr;labelPosition=right;" parent="vUUI1PN4nQBjMnBYSGBK-2" vertex="1">
          <mxGeometry x="160" y="98" width="69" height="72" as="geometry" />
        </mxCell>
        <mxCell id="vUUI1PN4nQBjMnBYSGBK-58" style="edgeStyle=orthogonalEdgeStyle;rounded=0;orthogonalLoop=1;jettySize=auto;html=1;startArrow=classic;startFill=1;" parent="vUUI1PN4nQBjMnBYSGBK-1" source="vUUI1PN4nQBjMnBYSGBK-12" target="vUUI1PN4nQBjMnBYSGBK-13" edge="1">
          <mxGeometry relative="1" as="geometry" />
        </mxCell>
        <mxCell id="vUUI1PN4nQBjMnBYSGBK-12" value="NAT Gateway" style="sketch=0;outlineConnect=0;fontColor=#232F3E;gradientColor=none;fillColor=#4D27AA;strokeColor=none;dashed=0;verticalLabelPosition=bottom;verticalAlign=top;align=center;html=1;fontSize=12;fontStyle=0;aspect=fixed;pointerEvents=1;shape=mxgraph.aws4.nat_gateway;" parent="vUUI1PN4nQBjMnBYSGBK-1" vertex="1">
          <mxGeometry x="470" y="70" width="78" height="78" as="geometry" />
        </mxCell>
        <mxCell id="YvZ6jdrIab74I5BiL6_z-3" style="edgeStyle=orthogonalEdgeStyle;rounded=0;orthogonalLoop=1;jettySize=auto;html=1;entryX=0.145;entryY=0.855;entryDx=0;entryDy=0;entryPerimeter=0;" edge="1" parent="vUUI1PN4nQBjMnBYSGBK-1" source="vUUI1PN4nQBjMnBYSGBK-15" target="vUUI1PN4nQBjMnBYSGBK-8">
          <mxGeometry relative="1" as="geometry">
            <Array as="points">
              <mxPoint x="510" y="619" />
              <mxPoint x="510" y="470" />
              <mxPoint x="849" y="470" />
            </Array>
          </mxGeometry>
        </mxCell>
        <mxCell id="YvZ6jdrIab74I5BiL6_z-4" value="Read tasks from Queue" style="edgeLabel;html=1;align=center;verticalAlign=middle;resizable=0;points=[];" vertex="1" connectable="0" parent="YvZ6jdrIab74I5BiL6_z-3">
          <mxGeometry x="-0.6251" y="1" relative="1" as="geometry">
            <mxPoint as="offset" />
          </mxGeometry>
        </mxCell>
        <mxCell id="vUUI1PN4nQBjMnBYSGBK-15" value="SQS Queue" style="sketch=0;points=[[0,0,0],[0.25,0,0],[0.5,0,0],[0.75,0,0],[1,0,0],[0,1,0],[0.25,1,0],[0.5,1,0],[0.75,1,0],[1,1,0],[0,0.25,0],[0,0.5,0],[0,0.75,0],[1,0.25,0],[1,0.5,0],[1,0.75,0]];outlineConnect=0;fontColor=#232F3E;gradientColor=#FF4F8B;gradientDirection=north;fillColor=#BC1356;strokeColor=#ffffff;dashed=0;verticalLabelPosition=bottom;verticalAlign=top;align=center;html=1;fontSize=12;fontStyle=0;aspect=fixed;shape=mxgraph.aws4.resourceIcon;resIcon=mxgraph.aws4.sqs;" parent="vUUI1PN4nQBjMnBYSGBK-1" vertex="1">
          <mxGeometry x="110" y="580" width="78" height="78" as="geometry" />
        </mxCell>
        <mxCell id="vUUI1PN4nQBjMnBYSGBK-9" value="RDS Database" style="outlineConnect=0;dashed=0;verticalLabelPosition=bottom;verticalAlign=top;align=center;html=1;shape=mxgraph.aws3.rds;fillColor=#2E73B8;gradientColor=none;" parent="vUUI1PN4nQBjMnBYSGBK-1" vertex="1">
          <mxGeometry x="680" y="540" width="90" height="100" as="geometry" />
        </mxCell>
        <mxCell id="vUUI1PN4nQBjMnBYSGBK-43" value="Send tasks to Queue" style="edgeStyle=orthogonalEdgeStyle;rounded=0;orthogonalLoop=1;jettySize=auto;html=1;entryX=0.5;entryY=0;entryDx=0;entryDy=0;entryPerimeter=0;" parent="vUUI1PN4nQBjMnBYSGBK-1" source="vUUI1PN4nQBjMnBYSGBK-5" target="vUUI1PN4nQBjMnBYSGBK-15" edge="1">
          <mxGeometry relative="1" as="geometry">
            <Array as="points">
              <mxPoint x="795" y="320" />
              <mxPoint x="149" y="320" />
            </Array>
          </mxGeometry>
        </mxCell>
        <mxCell id="vUUI1PN4nQBjMnBYSGBK-57" style="edgeStyle=orthogonalEdgeStyle;rounded=0;orthogonalLoop=1;jettySize=auto;html=1;exitX=0.5;exitY=0;exitDx=0;exitDy=0;exitPerimeter=0;startArrow=classic;startFill=1;" parent="vUUI1PN4nQBjMnBYSGBK-1" source="vUUI1PN4nQBjMnBYSGBK-5" target="vUUI1PN4nQBjMnBYSGBK-12" edge="1">
          <mxGeometry relative="1" as="geometry">
            <Array as="points">
              <mxPoint x="805" y="110" />
            </Array>
          </mxGeometry>
        </mxCell>
        <mxCell id="vUUI1PN4nQBjMnBYSGBK-61" style="edgeStyle=orthogonalEdgeStyle;rounded=0;orthogonalLoop=1;jettySize=auto;html=1;entryX=0.5;entryY=0;entryDx=0;entryDy=0;entryPerimeter=0;startArrow=classic;startFill=1;endArrow=none;endFill=0;" parent="vUUI1PN4nQBjMnBYSGBK-1" source="vUUI1PN4nQBjMnBYSGBK-5" target="vUUI1PN4nQBjMnBYSGBK-9" edge="1">
          <mxGeometry relative="1" as="geometry">
            <Array as="points">
              <mxPoint x="1000" y="210" />
              <mxPoint x="1000" y="540" />
            </Array>
          </mxGeometry>
        </mxCell>
        <mxCell id="YvZ6jdrIab74I5BiL6_z-5" style="edgeStyle=orthogonalEdgeStyle;rounded=0;orthogonalLoop=1;jettySize=auto;html=1;" edge="1" parent="vUUI1PN4nQBjMnBYSGBK-1" source="EJ77hEFKKq3g6bZW5yER-2" target="vUUI1PN4nQBjMnBYSGBK-5">
          <mxGeometry relative="1" as="geometry">
            <Array as="points">
              <mxPoint x="225" y="350" />
              <mxPoint x="805" y="350" />
            </Array>
          </mxGeometry>
        </mxCell>
        <mxCell id="YvZ6jdrIab74I5BiL6_z-6" value="Read&amp;nbsp; PDF files and images" style="edgeLabel;html=1;align=center;verticalAlign=middle;resizable=0;points=[];" vertex="1" connectable="0" parent="YvZ6jdrIab74I5BiL6_z-5">
          <mxGeometry x="-0.5904" y="-2" relative="1" as="geometry">
            <mxPoint as="offset" />
          </mxGeometry>
        </mxCell>
        <mxCell id="EJ77hEFKKq3g6bZW5yER-2" value="S3 Bucket&lt;br&gt;Stores PDF files&lt;br&gt;Stores PDF images" style="sketch=0;outlineConnect=0;fontColor=#232F3E;gradientColor=none;fillColor=#3F8624;strokeColor=none;dashed=0;verticalLabelPosition=bottom;verticalAlign=top;align=center;html=1;fontSize=12;fontStyle=0;aspect=fixed;pointerEvents=1;shape=mxgraph.aws4.bucket;" parent="vUUI1PN4nQBjMnBYSGBK-1" vertex="1">
          <mxGeometry x="188" y="360" width="75" height="78" as="geometry" />
        </mxCell>
        <mxCell id="vUUI1PN4nQBjMnBYSGBK-13" value="Opensearch Data Node" style="sketch=0;outlineConnect=0;fontColor=#232F3E;gradientColor=none;fillColor=#4D27AA;strokeColor=none;dashed=0;verticalLabelPosition=bottom;verticalAlign=top;align=center;html=1;fontSize=12;fontStyle=0;aspect=fixed;pointerEvents=1;shape=mxgraph.aws4.opensearch_service_data_node;" parent="vUUI1PN4nQBjMnBYSGBK-1" vertex="1">
          <mxGeometry x="250" y="130" width="78" height="78" as="geometry" />
        </mxCell>
        <mxCell id="vUUI1PN4nQBjMnBYSGBK-59" style="edgeStyle=orthogonalEdgeStyle;rounded=0;orthogonalLoop=1;jettySize=auto;html=1;startArrow=classic;startFill=1;" parent="vUUI1PN4nQBjMnBYSGBK-1" source="vUUI1PN4nQBjMnBYSGBK-14" target="vUUI1PN4nQBjMnBYSGBK-13" edge="1">
          <mxGeometry relative="1" as="geometry" />
        </mxCell>
        <mxCell id="vUUI1PN4nQBjMnBYSGBK-14" value="Opensearch Index" style="sketch=0;outlineConnect=0;fontColor=#232F3E;gradientColor=none;fillColor=#4D27AA;strokeColor=none;dashed=0;verticalLabelPosition=bottom;verticalAlign=top;align=center;html=1;fontSize=12;fontStyle=0;aspect=fixed;pointerEvents=1;shape=mxgraph.aws4.opensearch_service_index;" parent="vUUI1PN4nQBjMnBYSGBK-1" vertex="1">
          <mxGeometry x="80" y="130" width="78" height="78" as="geometry" />
        </mxCell>
        <mxCell id="YvZ6jdrIab74I5BiL6_z-7" style="edgeStyle=orthogonalEdgeStyle;rounded=0;orthogonalLoop=1;jettySize=auto;html=1;exitX=0;exitY=0.5;exitDx=0;exitDy=0;exitPerimeter=0;" edge="1" parent="vUUI1PN4nQBjMnBYSGBK-1" source="vUUI1PN4nQBjMnBYSGBK-8" target="EJ77hEFKKq3g6bZW5yER-2">
          <mxGeometry relative="1" as="geometry" />
        </mxCell>
        <mxCell id="YvZ6jdrIab74I5BiL6_z-8" value="Store PDF files and images&lt;br&gt;" style="edgeLabel;html=1;align=center;verticalAlign=middle;resizable=0;points=[];" vertex="1" connectable="0" parent="YvZ6jdrIab74I5BiL6_z-7">
          <mxGeometry x="0.5882" y="1" relative="1" as="geometry">
            <mxPoint as="offset" />
          </mxGeometry>
        </mxCell>
        <mxCell id="vUUI1PN4nQBjMnBYSGBK-16" value="AWS Cognito&lt;br&gt;" style="sketch=0;points=[[0,0,0],[0.25,0,0],[0.5,0,0],[0.75,0,0],[1,0,0],[0,1,0],[0.25,1,0],[0.5,1,0],[0.75,1,0],[1,1,0],[0,0.25,0],[0,0.5,0],[0,0.75,0],[1,0.25,0],[1,0.5,0],[1,0.75,0]];outlineConnect=0;fontColor=#232F3E;gradientColor=#F54749;gradientDirection=north;fillColor=#C7131F;strokeColor=#ffffff;dashed=0;verticalLabelPosition=bottom;verticalAlign=top;align=center;html=1;fontSize=12;fontStyle=0;aspect=fixed;shape=mxgraph.aws4.resourceIcon;resIcon=mxgraph.aws4.cognito;" parent="UEzPUAAOIrF-is8g5C7q-74" vertex="1">
          <mxGeometry x="300" y="812.5" width="78" height="78" as="geometry" />
        </mxCell>
        <mxCell id="vUUI1PN4nQBjMnBYSGBK-49" value="Authentication" style="edgeStyle=orthogonalEdgeStyle;rounded=0;orthogonalLoop=1;jettySize=auto;html=1;exitX=1;exitY=0.5;exitDx=0;exitDy=0;exitPerimeter=0;entryX=0;entryY=0.5;entryDx=0;entryDy=0;entryPerimeter=0;startArrow=classic;startFill=1;" parent="UEzPUAAOIrF-is8g5C7q-74" source="vUUI1PN4nQBjMnBYSGBK-6" target="vUUI1PN4nQBjMnBYSGBK-16" edge="1">
          <mxGeometry relative="1" as="geometry" />
        </mxCell>
        <mxCell id="vUUI1PN4nQBjMnBYSGBK-54" style="edgeStyle=orthogonalEdgeStyle;rounded=0;orthogonalLoop=1;jettySize=auto;html=1;entryX=0;entryY=0.5;entryDx=0;entryDy=0;entryPerimeter=0;startArrow=classic;startFill=1;" parent="UEzPUAAOIrF-is8g5C7q-74" source="vUUI1PN4nQBjMnBYSGBK-6" target="vUUI1PN4nQBjMnBYSGBK-5" edge="1">
          <mxGeometry relative="1" as="geometry">
            <Array as="points">
              <mxPoint x="70" y="300" />
              <mxPoint x="620" y="300" />
              <mxPoint x="620" y="214" />
            </Array>
          </mxGeometry>
        </mxCell>
        <mxCell id="vUUI1PN4nQBjMnBYSGBK-6" value="API Gateway" style="sketch=0;points=[[0,0,0],[0.25,0,0],[0.5,0,0],[0.75,0,0],[1,0,0],[0,1,0],[0.25,1,0],[0.5,1,0],[0.75,1,0],[1,1,0],[0,0.25,0],[0,0.5,0],[0,0.75,0],[1,0.25,0],[1,0.5,0],[1,0.75,0]];outlineConnect=0;fontColor=#232F3E;gradientColor=#FF4F8B;gradientDirection=north;fillColor=#BC1356;strokeColor=#ffffff;dashed=0;verticalLabelPosition=bottom;verticalAlign=top;align=center;html=1;fontSize=12;fontStyle=0;aspect=fixed;shape=mxgraph.aws4.resourceIcon;resIcon=mxgraph.aws4.api_gateway;" parent="UEzPUAAOIrF-is8g5C7q-74" vertex="1">
          <mxGeometry x="70" y="812.5" width="78" height="78" as="geometry" />
        </mxCell>
        <mxCell id="vUUI1PN4nQBjMnBYSGBK-11" value="SES Email/Messanger" style="outlineConnect=0;dashed=0;verticalLabelPosition=bottom;verticalAlign=top;align=center;html=1;shape=mxgraph.aws3.ses;fillColor=#D9A741;gradientColor=none;" parent="UEzPUAAOIrF-is8g5C7q-74" vertex="1">
          <mxGeometry x="650" y="850" width="79.5" height="93" as="geometry" />
        </mxCell>
        <mxCell id="vUUI1PN4nQBjMnBYSGBK-60" style="edgeStyle=orthogonalEdgeStyle;rounded=0;orthogonalLoop=1;jettySize=auto;html=1;entryX=1;entryY=0.5;entryDx=0;entryDy=0;entryPerimeter=0;" parent="UEzPUAAOIrF-is8g5C7q-74" source="vUUI1PN4nQBjMnBYSGBK-8" target="vUUI1PN4nQBjMnBYSGBK-11" edge="1">
          <mxGeometry relative="1" as="geometry">
            <Array as="points">
              <mxPoint x="894" y="897" />
            </Array>
          </mxGeometry>
        </mxCell>
        <mxCell id="vUUI1PN4nQBjMnBYSGBK-62" style="edgeStyle=orthogonalEdgeStyle;rounded=0;orthogonalLoop=1;jettySize=auto;html=1;" parent="1" source="vUUI1PN4nQBjMnBYSGBK-44" target="vUUI1PN4nQBjMnBYSGBK-12" edge="1">
          <mxGeometry relative="1" as="geometry">
            <Array as="points">
              <mxPoint x="110" y="219" />
              <mxPoint x="110" y="219" />
            </Array>
          </mxGeometry>
        </mxCell>
        <mxCell id="vUUI1PN4nQBjMnBYSGBK-44" value="GCMD Keywords API" style="sketch=0;html=1;dashed=0;whitespace=wrap;fillColor=#2875E2;strokeColor=#ffffff;points=[[0.005,0.63,0],[0.1,0.2,0],[0.9,0.2,0],[0.5,0,0],[0.995,0.63,0],[0.72,0.99,0],[0.5,1,0],[0.28,0.99,0]];verticalLabelPosition=bottom;align=center;verticalAlign=top;shape=mxgraph.kubernetes.icon;prIcon=api" parent="1" vertex="1">
          <mxGeometry x="-140" y="190" width="100" height="120" as="geometry" />
        </mxCell>
        <mxCell id="vUUI1PN4nQBjMnBYSGBK-47" style="edgeStyle=orthogonalEdgeStyle;rounded=0;orthogonalLoop=1;jettySize=auto;html=1;entryX=-0.029;entryY=0.536;entryDx=0;entryDy=0;entryPerimeter=0;" parent="1" source="vUUI1PN4nQBjMnBYSGBK-45" target="vUUI1PN4nQBjMnBYSGBK-46" edge="1">
          <mxGeometry relative="1" as="geometry" />
        </mxCell>
        <mxCell id="vUUI1PN4nQBjMnBYSGBK-45" value="Client" style="image;aspect=fixed;perimeter=ellipsePerimeter;html=1;align=center;shadow=0;dashed=0;spacingTop=3;image=img/lib/active_directory/laptop_client.svg;" parent="1" vertex="1">
          <mxGeometry x="-420" y="858" width="90" height="100" as="geometry" />
        </mxCell>
        <mxCell id="vUUI1PN4nQBjMnBYSGBK-10" value="S3 Bucket" style="sketch=0;outlineConnect=0;fontColor=#232F3E;gradientColor=none;fillColor=#3F8624;strokeColor=none;dashed=0;verticalLabelPosition=bottom;verticalAlign=top;align=center;html=1;fontSize=12;fontStyle=0;aspect=fixed;pointerEvents=1;shape=mxgraph.aws4.bucket;" parent="1" vertex="1">
          <mxGeometry x="-140" y="780" width="75" height="78" as="geometry" />
        </mxCell>
        <mxCell id="vUUI1PN4nQBjMnBYSGBK-48" style="edgeStyle=orthogonalEdgeStyle;rounded=0;orthogonalLoop=1;jettySize=auto;html=1;" parent="1" source="vUUI1PN4nQBjMnBYSGBK-46" target="vUUI1PN4nQBjMnBYSGBK-6" edge="1">
          <mxGeometry relative="1" as="geometry" />
        </mxCell>
        <mxCell id="vUUI1PN4nQBjMnBYSGBK-46" value="Static Frontend App" style="image;aspect=fixed;html=1;points=[];align=center;fontSize=12;image=img/lib/azure2/preview/Static_Apps.svg;" parent="1" vertex="1">
          <mxGeometry x="-135" y="900" width="70" height="56.00000000000001" as="geometry" />
        </mxCell>
        <mxCell id="vUUI1PN4nQBjMnBYSGBK-51" value="Outbound Emails &amp;amp; Notifications" style="edgeStyle=orthogonalEdgeStyle;rounded=0;orthogonalLoop=1;jettySize=auto;html=1;entryX=0.5;entryY=1;entryDx=0;entryDy=0;" parent="1" source="vUUI1PN4nQBjMnBYSGBK-11" target="vUUI1PN4nQBjMnBYSGBK-45" edge="1">
          <mxGeometry relative="1" as="geometry">
            <Array as="points">
              <mxPoint x="625" y="1110" />
              <mxPoint x="-375" y="1110" />
            </Array>
          </mxGeometry>
        </mxCell>
        <mxCell id="vUUI1PN4nQBjMnBYSGBK-63" value="AWS Cloud" style="sketch=0;outlineConnect=0;gradientColor=none;html=1;whiteSpace=wrap;fontSize=12;fontStyle=0;shape=mxgraph.aws4.group;grIcon=mxgraph.aws4.group_aws_cloud;strokeColor=#AAB7B8;fillColor=none;verticalAlign=top;align=left;spacingLeft=30;fontColor=#AAB7B8;dashed=0;" parent="1" vertex="1">
          <mxGeometry x="-170" y="710" width="130" height="340" as="geometry" />
        </mxCell>
        <mxCell id="EJ77hEFKKq3g6bZW5yER-1" value="AWS Cloud" style="sketch=0;outlineConnect=0;gradientColor=none;html=1;whiteSpace=wrap;fontSize=12;fontStyle=0;shape=mxgraph.aws4.group;grIcon=mxgraph.aws4.group_aws_cloud;strokeColor=#AAB7B8;fillColor=none;verticalAlign=top;align=left;spacingLeft=30;fontColor=#AAB7B8;dashed=0;" parent="1" vertex="1">
          <mxGeometry x="1190" y="80" width="130" height="340" as="geometry" />
        </mxCell>
      </root>
    </mxGraphModel>
  </diagram>
</mxfile>
